<svg width="180" height="180" viewBox="0 0 180 180" fill="none" xmlns="http://www.w3.org/2000/svg">
  <defs>
    <linearGradient id="bg" x1="0" y1="0" x2="180" y2="180" gradientUnits="userSpaceOnUse">
      <stop stop-color="#2D6A4F"/>
      <stop offset="1" stop-color="#1B4332"/>
    </linearGradient>
    <linearGradient id="leaf" x1="70" y1="40" x2="130" y2="140" gradientUnits="userSpaceOnUse">
      <stop stop-color="#95D5B2"/>
      <stop offset="1" stop-color="#52B788"/>
    </linearGradient>
  </defs>
  <rect width="180" height="180" rx="36" fill="url(#bg)"/>
  <!-- Stem -->
  <path d="M90 145V80" stroke="#B7E4C7" stroke-width="6" stroke-linecap="round"/>
  <!-- Left leaf -->
  <path d="M90 95C90 95 55 85 50 60C50 60 80 55 90 80" fill="url(#leaf)"/>
  <!-- Right leaf -->
  <path d="M90 75C90 75 125 65 130 40C130 40 100 35 90 60" fill="url(#leaf)"/>
  <!-- Small left leaf -->
  <path d="M90 115C90 115 70 110 65 95C65 95 82 93 90 105" fill="#52B788" fill-opacity="0.7"/>
  <!-- Ground line -->
  <line x1="60" y1="145" x2="120" y2="145" stroke="#B7E4C7" stroke-width="4" stroke-linecap="round"/>
</svg>